<svg width="576" height="576" viewBox="0 0 576 576" fill="none" xmlns="http://www.w3.org/2000/svg">
<g clip-path="url(#clip0_11_501)">
<circle cx="287.82" cy="288.242" r="287.279" fill="black"/>
<path d="M174.063 127.789C174.063 127.16 173.965 126.6 173.769 126.11C173.587 125.62 173.258 125.172 172.782 124.766C172.306 124.36 171.635 123.968 170.767 123.59C169.913 123.198 168.821 122.799 167.491 122.393C166.036 121.946 164.692 121.449 163.46 120.903C162.242 120.343 161.179 119.699 160.269 118.971C159.359 118.229 158.652 117.382 158.148 116.431C157.644 115.465 157.392 114.352 157.392 113.092C157.392 111.846 157.651 110.713 158.169 109.691C158.701 108.669 159.45 107.787 160.416 107.045C161.395 106.289 162.55 105.709 163.88 105.303C165.21 104.883 166.679 104.673 168.289 104.673C170.557 104.673 172.509 105.093 174.147 105.932C175.799 106.772 177.066 107.899 177.947 109.313C178.843 110.727 179.291 112.287 179.291 113.995H174.063C174.063 112.987 173.846 112.098 173.412 111.328C172.992 110.545 172.348 109.929 171.481 109.481C170.627 109.033 169.542 108.809 168.226 108.809C166.98 108.809 165.945 108.998 165.119 109.376C164.293 109.754 163.677 110.265 163.271 110.909C162.865 111.552 162.662 112.28 162.662 113.092C162.662 113.666 162.795 114.191 163.061 114.667C163.327 115.129 163.733 115.563 164.279 115.969C164.825 116.361 165.511 116.731 166.337 117.081C167.162 117.431 168.135 117.767 169.255 118.089C170.949 118.593 172.425 119.153 173.685 119.769C174.945 120.371 175.995 121.057 176.835 121.827C177.674 122.596 178.304 123.471 178.724 124.451C179.144 125.417 179.354 126.516 179.354 127.747C179.354 129.035 179.095 130.197 178.577 131.233C178.059 132.255 177.318 133.129 176.352 133.857C175.4 134.571 174.252 135.124 172.908 135.516C171.579 135.894 170.095 136.083 168.457 136.083C166.987 136.083 165.539 135.887 164.111 135.495C162.697 135.103 161.409 134.508 160.248 133.71C159.086 132.898 158.162 131.891 157.476 130.687C156.79 129.469 156.447 128.048 156.447 126.425H161.717C161.717 127.418 161.885 128.265 162.221 128.965C162.571 129.665 163.054 130.239 163.67 130.687C164.286 131.121 165 131.443 165.812 131.653C166.637 131.863 167.519 131.968 168.457 131.968C169.689 131.968 170.718 131.793 171.544 131.443C172.383 131.093 173.013 130.603 173.433 129.973C173.853 129.343 174.063 128.615 174.063 127.789ZM188.928 112.945V135.663H183.847V112.945H188.928ZM183.511 106.982C183.511 106.212 183.763 105.576 184.267 105.072C184.785 104.554 185.499 104.295 186.409 104.295C187.305 104.295 188.012 104.554 188.529 105.072C189.047 105.576 189.306 106.212 189.306 106.982C189.306 107.738 189.047 108.368 188.529 108.872C188.012 109.376 187.305 109.628 186.409 109.628C185.499 109.628 184.785 109.376 184.267 108.872C183.763 108.368 183.511 107.738 183.511 106.982ZM199.531 117.564V135.663H194.471V112.945H199.237L199.531 117.564ZM198.713 123.464L196.991 123.443C196.991 121.876 197.187 120.427 197.579 119.097C197.971 117.767 198.545 116.613 199.3 115.633C200.056 114.639 200.994 113.876 202.114 113.344C203.248 112.798 204.556 112.525 206.04 112.525C207.076 112.525 208.021 112.679 208.875 112.987C209.742 113.281 210.491 113.75 211.121 114.394C211.765 115.038 212.255 115.864 212.591 116.871C212.941 117.879 213.116 119.097 213.116 120.525V135.663H208.056V120.966C208.056 119.86 207.888 118.992 207.552 118.362C207.23 117.732 206.761 117.284 206.145 117.018C205.543 116.738 204.822 116.599 203.983 116.599C203.031 116.599 202.219 116.78 201.547 117.144C200.889 117.508 200.35 118.005 199.93 118.635C199.51 119.265 199.202 119.993 199.006 120.819C198.811 121.645 198.713 122.526 198.713 123.464ZM212.801 122.12L210.428 122.645C210.428 121.274 210.617 119.979 210.995 118.761C211.387 117.529 211.954 116.452 212.696 115.528C213.452 114.59 214.383 113.855 215.488 113.323C216.594 112.791 217.861 112.525 219.289 112.525C220.45 112.525 221.486 112.686 222.396 113.008C223.32 113.316 224.104 113.806 224.748 114.478C225.392 115.15 225.881 116.025 226.217 117.102C226.553 118.166 226.721 119.454 226.721 120.966V135.663H221.64V120.945C221.64 119.797 221.472 118.908 221.136 118.278C220.814 117.648 220.352 117.214 219.751 116.976C219.149 116.724 218.428 116.599 217.588 116.599C216.804 116.599 216.111 116.745 215.509 117.039C214.922 117.319 214.425 117.718 214.019 118.236C213.613 118.74 213.305 119.321 213.095 119.979C212.899 120.637 212.801 121.351 212.801 122.12ZM237.009 117.312V144.397H231.949V112.945H236.61L237.009 117.312ZM251.812 124.094V124.535C251.812 126.187 251.616 127.719 251.224 129.133C250.846 130.533 250.279 131.758 249.523 132.807C248.781 133.843 247.864 134.648 246.773 135.222C245.681 135.796 244.421 136.083 242.993 136.083C241.58 136.083 240.341 135.824 239.277 135.306C238.227 134.774 237.338 134.025 236.61 133.059C235.883 132.094 235.295 130.96 234.847 129.658C234.413 128.342 234.105 126.901 233.923 125.333V123.632C234.105 121.967 234.413 120.455 234.847 119.097C235.295 117.739 235.883 116.571 236.61 115.591C237.338 114.611 238.227 113.855 239.277 113.323C240.327 112.791 241.552 112.525 242.951 112.525C244.379 112.525 245.646 112.805 246.752 113.365C247.857 113.911 248.788 114.695 249.544 115.717C250.3 116.724 250.867 117.942 251.245 119.37C251.623 120.784 251.812 122.358 251.812 124.094ZM246.752 124.535V124.094C246.752 123.044 246.654 122.071 246.458 121.176C246.262 120.266 245.954 119.468 245.534 118.782C245.114 118.096 244.575 117.564 243.917 117.186C243.273 116.794 242.496 116.599 241.587 116.599C240.691 116.599 239.921 116.752 239.277 117.06C238.633 117.354 238.094 117.767 237.66 118.299C237.226 118.831 236.89 119.454 236.652 120.168C236.415 120.868 236.247 121.631 236.149 122.456V126.53C236.317 127.537 236.603 128.461 237.009 129.301C237.415 130.141 237.989 130.813 238.731 131.317C239.487 131.807 240.453 132.052 241.629 132.052C242.538 132.052 243.315 131.856 243.959 131.464C244.603 131.072 245.128 130.533 245.534 129.847C245.954 129.147 246.262 128.342 246.458 127.432C246.654 126.523 246.752 125.557 246.752 124.535ZM261.533 103.413V135.663H256.452V103.413H261.533ZM277.091 136.083C275.411 136.083 273.893 135.81 272.535 135.264C271.191 134.704 270.043 133.927 269.091 132.933C268.154 131.94 267.433 130.771 266.929 129.427C266.425 128.083 266.173 126.635 266.173 125.081V124.241C266.173 122.463 266.432 120.854 266.95 119.412C267.468 117.97 268.189 116.738 269.112 115.717C270.036 114.681 271.128 113.89 272.388 113.344C273.648 112.798 275.012 112.525 276.482 112.525C278.106 112.525 279.526 112.798 280.744 113.344C281.962 113.89 282.97 114.66 283.768 115.654C284.58 116.634 285.181 117.802 285.573 119.16C285.979 120.518 286.182 122.016 286.182 123.653V125.816H268.63V122.183H281.185V121.785C281.157 120.875 280.975 120.021 280.639 119.223C280.317 118.425 279.82 117.781 279.149 117.291C278.477 116.801 277.581 116.557 276.461 116.557C275.621 116.557 274.872 116.738 274.214 117.102C273.571 117.452 273.032 117.963 272.598 118.635C272.164 119.307 271.828 120.119 271.59 121.071C271.366 122.009 271.254 123.065 271.254 124.241V125.081C271.254 126.075 271.387 126.999 271.653 127.852C271.933 128.692 272.339 129.427 272.871 130.057C273.403 130.687 274.047 131.184 274.802 131.548C275.558 131.898 276.419 132.073 277.385 132.073C278.603 132.073 279.687 131.828 280.639 131.338C281.591 130.848 282.417 130.155 283.117 129.259L285.783 131.842C285.293 132.556 284.657 133.241 283.873 133.899C283.089 134.543 282.13 135.068 280.996 135.474C279.876 135.88 278.575 136.083 277.091 136.083ZM303.483 105.093H308.186L317.026 128.671L325.844 105.093H330.547L318.873 135.663H315.136L303.483 105.093ZM301.341 105.093H305.814L306.59 125.501V135.663H301.341V105.093ZM328.216 105.093H332.71V135.663H327.44V125.501L328.216 105.093ZM348.478 136.083C346.798 136.083 345.279 135.81 343.922 135.264C342.578 134.704 341.43 133.927 340.478 132.933C339.54 131.94 338.819 130.771 338.316 129.427C337.812 128.083 337.56 126.635 337.56 125.081V124.241C337.56 122.463 337.819 120.854 338.337 119.412C338.854 117.97 339.575 116.738 340.499 115.717C341.423 114.681 342.515 113.89 343.775 113.344C345.034 112.798 346.399 112.525 347.869 112.525C349.492 112.525 350.913 112.798 352.131 113.344C353.349 113.89 354.357 114.66 355.154 115.654C355.966 116.634 356.568 117.802 356.96 119.16C357.366 120.518 357.569 122.016 357.569 123.653V125.816H340.016V122.183H352.572V121.785C352.544 120.875 352.362 120.021 352.026 119.223C351.704 118.425 351.207 117.781 350.535 117.291C349.863 116.801 348.968 116.557 347.848 116.557C347.008 116.557 346.259 116.738 345.601 117.102C344.957 117.452 344.418 117.963 343.984 118.635C343.551 119.307 343.215 120.119 342.977 121.071C342.753 122.009 342.641 123.065 342.641 124.241V125.081C342.641 126.075 342.774 126.999 343.04 127.852C343.32 128.692 343.726 129.427 344.257 130.057C344.789 130.687 345.433 131.184 346.189 131.548C346.945 131.898 347.806 132.073 348.772 132.073C349.989 132.073 351.074 131.828 352.026 131.338C352.978 130.848 353.804 130.155 354.504 129.259L357.17 131.842C356.68 132.556 356.043 133.241 355.259 133.899C354.476 134.543 353.517 135.068 352.383 135.474C351.263 135.88 349.961 136.083 348.478 136.083ZM366.576 117.564V135.663H361.516V112.945H366.282L366.576 117.564ZM365.757 123.464L364.036 123.443C364.036 121.876 364.232 120.427 364.624 119.097C365.016 117.767 365.589 116.613 366.345 115.633C367.101 114.639 368.039 113.876 369.159 113.344C370.293 112.798 371.601 112.525 373.085 112.525C374.121 112.525 375.066 112.679 375.92 112.987C376.787 113.281 377.536 113.75 378.166 114.394C378.81 115.038 379.3 115.864 379.636 116.871C379.986 117.879 380.161 119.097 380.161 120.525V135.663H375.101V120.966C375.101 119.86 374.933 118.992 374.597 118.362C374.275 117.732 373.806 117.284 373.19 117.018C372.588 116.738 371.867 116.599 371.027 116.599C370.076 116.599 369.264 116.78 368.592 117.144C367.934 117.508 367.395 118.005 366.975 118.635C366.555 119.265 366.247 119.993 366.051 120.819C365.855 121.645 365.757 122.526 365.757 123.464ZM379.846 122.12L377.473 122.645C377.473 121.274 377.662 119.979 378.04 118.761C378.432 117.529 378.999 116.452 379.741 115.528C380.497 114.59 381.428 113.855 382.533 113.323C383.639 112.791 384.906 112.525 386.334 112.525C387.495 112.525 388.531 112.686 389.441 113.008C390.365 113.316 391.149 113.806 391.793 114.478C392.436 115.15 392.926 116.025 393.262 117.102C393.598 118.166 393.766 119.454 393.766 120.966V135.663H388.685V120.945C388.685 119.797 388.517 118.908 388.181 118.278C387.859 117.648 387.397 117.214 386.796 116.976C386.194 116.724 385.473 116.599 384.633 116.599C383.849 116.599 383.156 116.745 382.554 117.039C381.966 117.319 381.47 117.718 381.064 118.236C380.658 118.74 380.35 119.321 380.14 119.979C379.944 120.637 379.846 121.351 379.846 122.12ZM398.007 124.556V124.073C398.007 122.435 398.245 120.917 398.721 119.517C399.197 118.103 399.883 116.878 400.779 115.843C401.689 114.793 402.795 113.981 404.096 113.407C405.412 112.819 406.896 112.525 408.547 112.525C410.213 112.525 411.697 112.819 412.999 113.407C414.314 113.981 415.427 114.793 416.337 115.843C417.247 116.878 417.94 118.103 418.416 119.517C418.892 120.917 419.13 122.435 419.13 124.073V124.556C419.13 126.194 418.892 127.712 418.416 129.112C417.94 130.512 417.247 131.737 416.337 132.786C415.427 133.822 414.321 134.634 413.02 135.222C411.718 135.796 410.241 136.083 408.589 136.083C406.924 136.083 405.433 135.796 404.117 135.222C402.816 134.634 401.71 133.822 400.8 132.786C399.89 131.737 399.197 130.512 398.721 129.112C398.245 127.712 398.007 126.194 398.007 124.556ZM403.068 124.073V124.556C403.068 125.578 403.172 126.544 403.382 127.453C403.592 128.363 403.921 129.161 404.369 129.847C404.817 130.533 405.391 131.072 406.091 131.464C406.791 131.856 407.624 132.052 408.589 132.052C409.527 132.052 410.339 131.856 411.025 131.464C411.725 131.072 412.299 130.533 412.747 129.847C413.195 129.161 413.524 128.363 413.734 127.453C413.957 126.544 414.069 125.578 414.069 124.556V124.073C414.069 123.065 413.957 122.113 413.734 121.218C413.524 120.308 413.188 119.503 412.726 118.803C412.278 118.103 411.704 117.557 411.004 117.165C410.318 116.759 409.499 116.557 408.547 116.557C407.596 116.557 406.77 116.759 406.07 117.165C405.384 117.557 404.817 118.103 404.369 118.803C403.921 119.503 403.592 120.308 403.382 121.218C403.172 122.113 403.068 123.065 403.068 124.073Z" fill="#AECBFA"/>
<rect x="213.796" y="443.64" width="148.048" height="97.1056" rx="48.5528" fill="#AECBFA"/>
<path d="M274.235 501.501V505.68H258.005V501.501H274.235ZM259.496 475.109V505.68H254.226V475.109H259.496ZM272.115 487.875V491.99H258.005V487.875H272.115ZM274.13 475.109V479.309H258.005V475.109H274.13ZM291.473 500.977V473.43H296.554V505.68H291.956L291.473 500.977ZM276.692 494.573V494.132C276.692 492.41 276.895 490.842 277.301 489.429C277.707 488.001 278.295 486.776 279.065 485.754C279.834 484.719 280.772 483.928 281.878 483.382C282.984 482.822 284.23 482.542 285.615 482.542C286.987 482.542 288.191 482.808 289.227 483.34C290.262 483.872 291.144 484.635 291.872 485.628C292.6 486.608 293.181 487.784 293.615 489.156C294.049 490.514 294.357 492.025 294.539 493.691V495.098C294.357 496.721 294.049 498.205 293.615 499.549C293.181 500.893 292.6 502.054 291.872 503.034C291.144 504.014 290.255 504.77 289.206 505.302C288.17 505.834 286.959 506.1 285.573 506.1C284.202 506.1 282.963 505.813 281.857 505.239C280.765 504.665 279.834 503.86 279.065 502.824C278.295 501.788 277.707 500.571 277.301 499.171C276.895 497.757 276.692 496.224 276.692 494.573ZM281.752 494.132V494.573C281.752 495.609 281.843 496.574 282.025 497.47C282.221 498.366 282.522 499.157 282.928 499.843C283.334 500.515 283.859 501.047 284.503 501.438C285.16 501.816 285.944 502.005 286.854 502.005C288.002 502.005 288.947 501.753 289.689 501.25C290.43 500.746 291.011 500.067 291.431 499.213C291.865 498.345 292.159 497.379 292.313 496.315V492.515C292.229 491.689 292.054 490.919 291.788 490.206C291.536 489.492 291.193 488.869 290.759 488.337C290.325 487.791 289.787 487.371 289.143 487.077C288.513 486.769 287.764 486.615 286.896 486.615C285.972 486.615 285.188 486.811 284.545 487.203C283.901 487.595 283.369 488.134 282.949 488.82C282.543 489.506 282.242 490.304 282.046 491.213C281.85 492.123 281.752 493.096 281.752 494.132ZM307.262 482.962V505.68H302.181V482.962H307.262ZM301.845 476.999C301.845 476.229 302.097 475.592 302.601 475.088C303.119 474.57 303.833 474.312 304.743 474.312C305.639 474.312 306.345 474.57 306.863 475.088C307.381 475.592 307.64 476.229 307.64 476.999C307.64 477.755 307.381 478.385 306.863 478.889C306.345 479.393 305.639 479.645 304.743 479.645C303.833 479.645 303.119 479.393 302.601 478.889C302.097 478.385 301.845 477.755 301.845 476.999ZM323.219 482.962V486.657H310.412V482.962H323.219ZM314.107 477.398H319.167V499.402C319.167 500.102 319.265 500.641 319.461 501.019C319.671 501.382 319.958 501.627 320.322 501.753C320.686 501.879 321.113 501.942 321.603 501.942C321.953 501.942 322.289 501.921 322.61 501.879C322.932 501.837 323.191 501.795 323.387 501.753L323.408 505.617C322.988 505.743 322.498 505.855 321.939 505.953C321.393 506.051 320.763 506.1 320.049 506.1C318.887 506.1 317.858 505.897 316.962 505.491C316.067 505.071 315.367 504.392 314.863 503.454C314.359 502.516 314.107 501.271 314.107 499.717V477.398Z" fill="#303133"/>
<path d="M186.068 241.979H190.357C192.025 241.979 193.405 241.691 194.497 241.115C195.609 240.539 196.433 239.745 196.969 238.732C197.505 237.719 197.773 236.558 197.773 235.247C197.773 233.877 197.525 232.706 197.028 231.733C196.552 230.74 195.817 229.975 194.824 229.439C193.851 228.903 192.61 228.635 191.101 228.635C189.83 228.635 188.679 228.893 187.646 229.409C186.633 229.906 185.829 230.621 185.234 231.554C184.638 232.467 184.34 233.559 184.34 234.83H177.132C177.132 232.527 177.738 230.482 178.949 228.695C180.16 226.907 181.808 225.508 183.893 224.495C185.998 223.462 188.361 222.946 190.982 222.946C193.782 222.946 196.224 223.413 198.309 224.346C200.414 225.259 202.052 226.629 203.224 228.456C204.395 230.283 204.981 232.547 204.981 235.247C204.981 236.478 204.693 237.729 204.117 239C203.541 240.271 202.688 241.433 201.556 242.485C200.424 243.518 199.014 244.362 197.326 245.017C195.638 245.652 193.683 245.97 191.459 245.97H186.068V241.979ZM186.068 247.578V243.647H191.459C194 243.647 196.165 243.945 197.952 244.54C199.759 245.136 201.228 245.96 202.36 247.012C203.492 248.045 204.316 249.226 204.832 250.557C205.368 251.887 205.636 253.297 205.636 254.786C205.636 256.812 205.269 258.619 204.534 260.207C203.819 261.776 202.797 263.106 201.466 264.198C200.136 265.291 198.577 266.115 196.79 266.671C195.023 267.227 193.097 267.505 191.012 267.505C189.145 267.505 187.358 267.247 185.651 266.73C183.943 266.214 182.414 265.449 181.064 264.437C179.713 263.404 178.641 262.123 177.847 260.594C177.072 259.046 176.685 257.259 176.685 255.233H183.863C183.863 256.524 184.161 257.666 184.757 258.658C185.373 259.631 186.226 260.396 187.318 260.952C188.43 261.508 189.701 261.786 191.131 261.786C192.64 261.786 193.941 261.518 195.033 260.982C196.125 260.446 196.959 259.651 197.535 258.599C198.13 257.546 198.428 256.276 198.428 254.786C198.428 253.099 198.101 251.728 197.445 250.676C196.79 249.624 195.857 248.849 194.646 248.353C193.434 247.837 192.005 247.578 190.357 247.578H186.068ZM220.916 223.542V266.909H213.44V223.542H220.916ZM238.609 242.515V248.442H219.01V242.515H238.609ZM241.081 223.542V229.499H219.01V223.542H241.081ZM290.167 261.19V266.909H261.096V261.994L275.214 246.595C276.763 244.848 277.984 243.339 278.878 242.068C279.772 240.797 280.397 239.656 280.755 238.643C281.132 237.61 281.32 236.608 281.32 235.635C281.32 234.264 281.062 233.063 280.546 232.031C280.05 230.978 279.315 230.154 278.342 229.558C277.369 228.943 276.187 228.635 274.797 228.635C273.189 228.635 271.839 228.983 270.747 229.677C269.655 230.372 268.831 231.336 268.275 232.567C267.719 233.778 267.441 235.168 267.441 236.737H260.262C260.262 234.215 260.838 231.911 261.99 229.826C263.142 227.722 264.81 226.054 266.994 224.823C269.178 223.572 271.809 222.946 274.887 222.946C277.786 222.946 280.248 223.433 282.274 224.406C284.299 225.378 285.838 226.759 286.89 228.546C287.963 230.333 288.499 232.448 288.499 234.89C288.499 236.24 288.28 237.58 287.843 238.911C287.407 240.241 286.781 241.572 285.967 242.902C285.173 244.213 284.229 245.533 283.137 246.864C282.045 248.174 280.844 249.504 279.533 250.855L270.151 261.19H290.167ZM325.641 251.45V257.169H294.366L294.128 252.85L312.833 223.542H318.582L312.357 234.205L301.604 251.45H325.641ZM320.22 223.542V266.909H313.042V223.542H320.22ZM348.456 229.32L335.5 266.909H327.666L343.988 223.542H348.992L348.456 229.32ZM359.298 266.909L346.312 229.32L345.746 223.542H350.779L367.161 266.909H359.298ZM358.672 250.825V256.752H335.083V250.825H358.672ZM378.42 246.744L372.701 245.344L375.054 223.542H398.436V229.618H381.011L379.82 240.251C380.495 239.854 381.428 239.467 382.62 239.09C383.811 238.692 385.171 238.494 386.7 238.494C388.746 238.494 390.572 238.831 392.181 239.507C393.809 240.162 395.189 241.125 396.321 242.396C397.453 243.647 398.317 245.176 398.912 246.983C399.508 248.77 399.806 250.785 399.806 253.029C399.806 255.035 399.508 256.911 398.912 258.658C398.336 260.406 397.463 261.945 396.291 263.275C395.12 264.606 393.64 265.648 391.853 266.403C390.086 267.137 387.991 267.505 385.568 267.505C383.762 267.505 382.024 267.247 380.356 266.73C378.708 266.194 377.229 265.41 375.918 264.377C374.608 263.325 373.555 262.034 372.761 260.505C371.967 258.956 371.51 257.179 371.391 255.174H378.42C378.599 256.583 378.986 257.785 379.582 258.778C380.197 259.751 381.011 260.495 382.024 261.011C383.037 261.528 384.208 261.786 385.539 261.786C386.75 261.786 387.792 261.577 388.666 261.16C389.54 260.724 390.265 260.108 390.84 259.314C391.436 258.5 391.873 257.546 392.151 256.454C392.449 255.362 392.598 254.151 392.598 252.821C392.598 251.55 392.429 250.388 392.091 249.336C391.774 248.283 391.287 247.37 390.632 246.595C389.997 245.821 389.192 245.225 388.219 244.808C387.246 244.372 386.124 244.153 384.854 244.153C383.146 244.153 381.835 244.401 380.922 244.898C380.028 245.394 379.194 246.01 378.42 246.744ZM161.882 321.736H150.593V315.808H161.882C163.848 315.808 165.436 315.491 166.648 314.855C167.859 314.22 168.742 313.346 169.298 312.234C169.874 311.102 170.162 309.812 170.162 308.362C170.162 306.992 169.874 305.711 169.298 304.52C168.742 303.309 167.859 302.336 166.648 301.601C165.436 300.866 163.848 300.499 161.882 300.499H152.887V337.909H145.411V294.542H161.882C165.238 294.542 168.087 295.137 170.43 296.329C172.793 297.5 174.59 299.129 175.821 301.214C177.053 303.279 177.668 305.642 177.668 308.302C177.668 311.102 177.053 313.505 175.821 315.51C174.59 317.516 172.793 319.055 170.43 320.127C168.087 321.199 165.238 321.736 161.882 321.736ZM201.466 331.446V316.076C201.466 314.925 201.258 313.932 200.841 313.098C200.424 312.264 199.789 311.619 198.935 311.162C198.101 310.705 197.048 310.477 195.777 310.477C194.606 310.477 193.593 310.675 192.739 311.073C191.886 311.47 191.22 312.006 190.744 312.681C190.267 313.356 190.029 314.121 190.029 314.974H182.88C182.88 313.704 183.188 312.472 183.804 311.281C184.419 310.09 185.313 309.027 186.484 308.094C187.656 307.161 189.056 306.426 190.684 305.89C192.312 305.354 194.139 305.086 196.165 305.086C198.587 305.086 200.732 305.493 202.598 306.307C204.485 307.121 205.964 308.352 207.036 310C208.128 311.628 208.674 313.674 208.674 316.136V330.463C208.674 331.932 208.774 333.253 208.972 334.424C209.191 335.576 209.498 336.579 209.896 337.432V337.909H202.539C202.201 337.135 201.933 336.152 201.734 334.96C201.556 333.749 201.466 332.577 201.466 331.446ZM202.509 318.31L202.568 322.748H197.416C196.085 322.748 194.914 322.877 193.901 323.135C192.888 323.374 192.044 323.731 191.369 324.208C190.694 324.684 190.188 325.26 189.85 325.935C189.513 326.61 189.344 327.375 189.344 328.229C189.344 329.083 189.542 329.867 189.94 330.582C190.337 331.277 190.913 331.823 191.667 332.22C192.442 332.617 193.375 332.816 194.467 332.816C195.936 332.816 197.217 332.518 198.309 331.922C199.421 331.307 200.295 330.562 200.93 329.688C201.566 328.795 201.903 327.951 201.943 327.156L204.266 330.344C204.028 331.158 203.621 332.031 203.045 332.965C202.469 333.898 201.715 334.791 200.781 335.645C199.868 336.479 198.766 337.164 197.475 337.7C196.204 338.237 194.735 338.505 193.067 338.505C190.962 338.505 189.086 338.088 187.438 337.254C185.79 336.4 184.499 335.258 183.566 333.828C182.632 332.379 182.166 330.741 182.166 328.914C182.166 327.206 182.483 325.697 183.119 324.386C183.774 323.056 184.727 321.944 185.978 321.051C187.249 320.157 188.798 319.482 190.625 319.025C192.451 318.549 194.536 318.31 196.88 318.31H202.509ZM223.388 311.817V337.909H216.21V305.681H223.061L223.388 311.817ZM233.247 305.473L233.188 312.145C232.751 312.065 232.274 312.006 231.758 311.966C231.262 311.926 230.765 311.906 230.269 311.906C229.038 311.906 227.955 312.085 227.022 312.443C226.089 312.78 225.304 313.277 224.669 313.932C224.054 314.567 223.577 315.342 223.239 316.255C222.902 317.169 222.703 318.191 222.644 319.323L221.005 319.442C221.005 317.417 221.204 315.54 221.601 313.813C221.998 312.085 222.594 310.566 223.388 309.256C224.202 307.945 225.215 306.922 226.426 306.188C227.658 305.453 229.077 305.086 230.686 305.086C231.123 305.086 231.589 305.125 232.086 305.205C232.602 305.284 232.989 305.374 233.247 305.473ZM244.983 292.159V337.909H237.775V292.159H244.983ZM264.998 305.681L250.969 321.229L243.285 329.093L241.408 323.016L247.216 315.838L256.331 305.681H264.998ZM257.88 337.909L247.425 322.778L251.952 317.744L266.19 337.909H257.88ZM277.24 305.681V337.909H270.032V305.681H277.24ZM269.555 297.222C269.555 296.13 269.913 295.227 270.628 294.512C271.362 293.777 272.375 293.41 273.666 293.41C274.936 293.41 275.939 293.777 276.674 294.512C277.409 295.227 277.776 296.13 277.776 297.222C277.776 298.295 277.409 299.188 276.674 299.903C275.939 300.618 274.936 300.975 273.666 300.975C272.375 300.975 271.362 300.618 270.628 299.903C269.913 299.188 269.555 298.295 269.555 297.222ZM292.222 312.562V337.909H285.044V305.681H291.805L292.222 312.562ZM290.941 320.604L288.618 320.574C288.638 318.29 288.955 316.196 289.571 314.289C290.206 312.383 291.08 310.745 292.192 309.375C293.324 308.005 294.674 306.952 296.243 306.218C297.811 305.463 299.559 305.086 301.485 305.086C303.034 305.086 304.434 305.304 305.685 305.741C306.956 306.158 308.038 306.843 308.931 307.796C309.845 308.749 310.54 309.99 311.016 311.519C311.493 313.028 311.731 314.885 311.731 317.089V337.909H304.523V317.059C304.523 315.51 304.295 314.289 303.838 313.396C303.401 312.482 302.756 311.837 301.902 311.46C301.068 311.063 300.026 310.864 298.775 310.864C297.543 310.864 296.441 311.122 295.468 311.638C294.495 312.155 293.671 312.86 292.996 313.753C292.341 314.647 291.835 315.679 291.477 316.851C291.12 318.022 290.941 319.273 290.941 320.604ZM339.699 305.681H346.222V337.015C346.222 339.914 345.607 342.377 344.376 344.402C343.144 346.427 341.427 347.966 339.223 349.019C337.019 350.091 334.467 350.627 331.568 350.627C330.337 350.627 328.967 350.448 327.458 350.091C325.968 349.734 324.519 349.158 323.109 348.364C321.719 347.589 320.557 346.566 319.624 345.296L322.99 341.066C324.142 342.436 325.412 343.439 326.802 344.074C328.192 344.71 329.652 345.028 331.181 345.028C332.829 345.028 334.229 344.72 335.38 344.104C336.552 343.509 337.456 342.625 338.091 341.453C338.726 340.282 339.044 338.852 339.044 337.164V312.979L339.699 305.681ZM317.807 322.153V321.527C317.807 319.085 318.105 316.861 318.701 314.855C319.297 312.83 320.15 311.092 321.262 309.643C322.374 308.173 323.725 307.052 325.313 306.277C326.902 305.483 328.699 305.086 330.704 305.086C332.789 305.086 334.566 305.463 336.036 306.218C337.525 306.972 338.766 308.054 339.759 309.464C340.752 310.854 341.526 312.522 342.082 314.468C342.658 316.394 343.085 318.539 343.363 320.902V322.897C343.105 325.201 342.668 327.305 342.052 329.212C341.437 331.118 340.623 332.766 339.61 334.156C338.597 335.546 337.346 336.618 335.857 337.373C334.388 338.127 332.65 338.505 330.645 338.505C328.679 338.505 326.902 338.098 325.313 337.283C323.744 336.469 322.394 335.328 321.262 333.858C320.15 332.389 319.297 330.661 318.701 328.676C318.105 326.67 317.807 324.496 317.807 322.153ZM324.985 321.527V322.153C324.985 323.622 325.124 324.992 325.402 326.263C325.7 327.534 326.147 328.656 326.743 329.629C327.358 330.582 328.133 331.336 329.066 331.892C330.019 332.428 331.141 332.697 332.432 332.697C334.12 332.697 335.5 332.339 336.572 331.624C337.664 330.909 338.498 329.946 339.074 328.735C339.67 327.504 340.087 326.134 340.325 324.625V319.234C340.206 318.062 339.957 316.97 339.58 315.957C339.223 314.945 338.736 314.061 338.121 313.306C337.505 312.532 336.731 311.936 335.797 311.519C334.864 311.082 333.762 310.864 332.491 310.864C331.201 310.864 330.079 311.142 329.126 311.698C328.172 312.254 327.388 313.018 326.773 313.991C326.177 314.964 325.73 316.096 325.432 317.387C325.134 318.678 324.985 320.058 324.985 321.527ZM376.544 292.159V337.909H369.336V292.159H376.544ZM383.037 322.153V321.468C383.037 319.144 383.374 316.99 384.049 315.004C384.725 312.999 385.698 311.261 386.968 309.792C388.259 308.302 389.828 307.151 391.674 306.337C393.541 305.503 395.646 305.086 397.989 305.086C400.352 305.086 402.457 305.503 404.303 306.337C406.17 307.151 407.748 308.302 409.039 309.792C410.33 311.261 411.313 312.999 411.988 315.004C412.663 316.99 413.001 319.144 413.001 321.468V322.153C413.001 324.476 412.663 326.63 411.988 328.616C411.313 330.602 410.33 332.339 409.039 333.828C407.748 335.298 406.18 336.449 404.333 337.283C402.486 338.098 400.392 338.505 398.048 338.505C395.686 338.505 393.571 338.098 391.704 337.283C389.858 336.449 388.289 335.298 386.998 333.828C385.707 332.339 384.725 330.602 384.049 328.616C383.374 326.63 383.037 324.476 383.037 322.153ZM390.215 321.468V322.153C390.215 323.602 390.364 324.972 390.662 326.263C390.96 327.554 391.426 328.685 392.062 329.658C392.697 330.631 393.511 331.396 394.504 331.952C395.497 332.508 396.678 332.786 398.048 332.786C399.379 332.786 400.531 332.508 401.504 331.952C402.496 331.396 403.311 330.631 403.946 329.658C404.581 328.685 405.048 327.554 405.346 326.263C405.664 324.972 405.822 323.602 405.822 322.153V321.468C405.822 320.038 405.664 318.688 405.346 317.417C405.048 316.126 404.571 314.984 403.916 313.991C403.281 312.999 402.467 312.224 401.474 311.668C400.501 311.092 399.339 310.804 397.989 310.804C396.639 310.804 395.467 311.092 394.474 311.668C393.501 312.224 392.697 312.999 392.062 313.991C391.426 314.984 390.96 316.126 390.662 317.417C390.364 318.688 390.215 320.038 390.215 321.468ZM433.791 305.681V310.924H415.622V305.681H433.791ZM420.864 297.788H428.042V329.003C428.042 329.996 428.181 330.76 428.459 331.297C428.757 331.813 429.164 332.16 429.68 332.339C430.197 332.518 430.802 332.607 431.497 332.607C431.994 332.607 432.47 332.577 432.927 332.518C433.384 332.458 433.751 332.399 434.029 332.339L434.059 337.82C433.463 337.998 432.768 338.157 431.974 338.296C431.199 338.435 430.306 338.505 429.293 338.505C427.645 338.505 426.186 338.217 424.915 337.641C423.644 337.045 422.651 336.082 421.936 334.752C421.221 333.421 420.864 331.654 420.864 329.45V297.788Z" fill="white"/>
</g>
<defs>
<clipPath id="clip0_11_501">
<rect width="576" height="576" fill="white"/>
</clipPath>
</defs>
</svg>
